PathFileType	4	(x/y/z)	A01_FAST_T0021.trc
DataRate	CameraRate	NumFrames	NumMarkers	Units	OrigDataRate	OrigDataStartFrame	OrigNumFrames
240	240	11	48	mm	240	180	287
Frame#	Time	TOP_HEAD			R_AC			L_AC			R_ASIS			L_ASIS			R_PSIS			L_PSIS			SACRAL			L_IC			R_IC			L_GT			R_GT			R_LAT_KNEE			R_MED_KNEE			L_MED_KNEE			L_LAT_KNEE			R_TOE			L_TOE			R_1ST_MET			L_1ST_MET			L_5TH_MET			R_5TH_MET			R_LAT_ANK			R_MED_ANK			L_MED_ANK			L_LAT_ANK			L_HEEL_SUP			R_HEEL_SUP			L_HEEL_LAT			R_HEEL_LAT			L_HEEL_MED			R_HEEL_MED			R_LL_PROX_POST			R_LL_PROX_ANT			R_LL_DIST_ANT			R_LL_DIST_POST			R_THIGH_PROX_POST			R_THIGH_PROX_ANT			R_THIGH_DIST_ANT			R_THIGH_DIST_POST			L_PROS_PROX_ANT			L_PROS_PROX_POST			L_PROS_DIST_POST			L_PROS_DIST_ANT			L_THIGH_PROX_ANT			L_THIGH_PROX_POST			L_THIGH_DIST_POST			L_THIGH_DIST_ANT			
		X1	Y1	Z1	X2	Y2	Z2	X3	Y3	Z3	X4	Y4	Z4	X5	Y5	Z5	X6	Y6	Z6	X7	Y7	Z7	X8	Y8	Z8	X9	Y9	Z9	X10	Y10	Z10	X11	Y11	Z11	X12	Y12	Z12	X13	Y13	Z13	X14	Y14	Z14	X15	Y15	Z15	X16	Y16	Z16	X17	Y17	Z17	X18	Y18	Z18	X19	Y19	Z19	X20	Y20	Z20	X21	Y21	Z21	X22	Y22	Z22	X23	Y23	Z23	X24	Y24	Z24	X25	Y25	Z25	X26	Y26	Z26	X27	Y27	Z27	X28	Y28	Z28	X29	Y29	Z29	X30	Y30	Z30	X31	Y31	Z31	X32	Y32	Z32	X33	Y33	Z33	X34	Y34	Z34	X35	Y35	Z35	X36	Y36	Z36	X37	Y37	Z37	X38	Y38	Z38	X39	Y39	Z39	X40	Y40	Z40	X41	Y41	Z41	X42	Y42	Z42	X43	Y43	Z43	X44	Y44	Z44	X45	Y45	Z45	X46	Y46	Z46	X47	Y47	Z47	X48	Y48	Z48	

180	0.74844	476.43	1770.1	355.62	301.95	1519.9	559.89	284.4	1526.9	102.13	294.55	1067.7	531.98	278.62	987.97	184.28	72.835	1060.3	418.98	77.918	1059.9	285.27	59.101	1030.5	352.48	259.36	1119.4	142.25	260.51	1158.5	544.72	208.5	910.9	145.58	248.53	955.81	577.53	375.53	564.31	500.15	405.13	576.94	371.25	220.97	482.22	337.58	193.41	525.28	188.55	601.73	71.576	387.01	-127.42	88.845	227.19	518.17	55.979	338.94	-184.67	134.44	296.89	-221.98	174.47	179.49	488.31	44.79	474.15	371.19	104.23	447.13	378.14	114.1	345.04	-178.23	287.62	303.49	-210.11	316.55	242.89	-288.33	355.3	302.66	271.76	70.571	387.68	-313.95	339.74	271.52	279.5	46.764	422.03	-301.83	321.14	332.18	281.21	45.37	359.85	299.68	382.86	494.85	370.16	377.02	512.73	377.73	304.18	491.36	322.57	303.65	479.67	255.82	802.78	555.7	315.65	843.08	564.38	347.53	758.16	549.42	290.26	721.11	539.31	150.88	440.62	195.49	119.38	487.02	194.08	64.602	456.56	206.42	100.66	415.7	204.83	260.6	764.34	176.83	191.21	774.42	161.59	198.04	698.45	170.09	261.26	690.37	183.21
181	0.75262	483.81	1770.7	355.31	308.98	1521	560.05	290.37	1528	102.26	301.33	1068.3	532.71	285.44	989.58	184.64	79.532	1061.3	419.73	84.391	1060.8	286.11	65.826	1031.3	353.23	265.49	1120.5	142.42	267.53	1159.7	545.08	215.79	912.33	145.87	254.94	956.36	578.03	379.52	564.39	500.53	409.34	576.84	371.56	234.37	482.4	336.6	206.04	527.17	188.15	601.99	71.108	386.95	-116.85	91.988	223.89	518.31	55.969	338.88	-173.28	137.21	294.57	-211.31	178.84	177.89	488.36	44.818	474.19	371.66	104.43	447.17	378.5	114.33	345.08	-166.14	290.23	302.88	-198.24	319.94	242.77	-275.62	358.76	303.59	272	71.028	387.79	-301.58	343.66	272.5	279.66	47.159	422.11	-289.11	324.38	332.86	281.37	45.836	359.94	302.17	383.59	494.97	372.59	377.19	512.95	379.64	304.32	491.5	324.5	304.22	479.71	261.16	803.49	556.01	321.26	843.39	564.94	352.58	758.23	549.99	295.1	721.59	539.69	163.12	442.64	194.5	131.84	489.25	193.75	76.991	458.93	206.09	112.83	417.88	203.87	269.86	766.11	176.69	200.34	775.46	161.54	208.06	699.56	169.82	271.37	692.12	182.87
182	0.7568	491.19	1771.4	354.98	315.98	1522.2	560.19	296.3	1529	102.35	308.1	1069	533.37	292.21	991.22	184.95	86.21	1062.3	420.47	90.84	1061.7	286.93	72.523	1032.3	353.97	271.59	1121.6	142.59	274.56	1161	545.44	223.01	913.82	146.15	261.32	956.99	578.49	383.38	564.49	500.92	413.38	576.74	371.88	247.68	482.76	335.64	218.62	529.18	187.74	602.22	70.684	386.9	-105.83	95.025	220.58	518.44	55.972	338.83	-161.53	139.76	292.19	-200.27	182.9	176.24	488.41	44.847	474.23	372.12	104.65	447.24	378.85	114.58	345.15	-153.87	292.6	302.19	-186.2	323.03	242.56	-262.85	361.79	304.38	272.24	71.501	387.91	-289.11	347.1	273.34	279.81	47.569	422.2	-276.3	327.18	333.41	281.53	46.316	360.04	304.53	384.31	495.09	374.88	377.38	513.17	381.44	304.48	491.66	326.32	304.79	479.77	266.42	804.27	556.31	326.8	843.75	565.46	357.56	758.36	550.55	299.85	722.14	540.08	175.41	444.74	193.51	144.3	491.52	193.41	89.408	461.29	205.74	125.06	420.1	202.9	279.09	767.97	176.55	209.46	776.58	161.47	218.06	700.76	169.55	281.45	693.98	182.53
183	0.76098	498.56	1772.1	354.62	322.94	1523.4	560.34	302.2	1530.1	102.42	314.87	1069.7	533.98	298.93	992.87	185.24	92.866	1063.5	421.18	97.272	1062.7	287.73	79.192	1033.3	354.69	277.68	1122.7	142.78	281.61	1162.2	545.79	230.16	915.35	146.4	267.67	957.71	578.93	387.08	564.61	501.3	417.29	576.64	372.23	260.91	483.31	334.7	231.15	531.3	187.34	602.45	70.301	386.85	-94.39	97.917	217.28	518.56	55.985	338.8	-149.42	142.07	289.79	-188.87	186.63	174.53	488.46	44.874	474.26	372.58	104.87	447.33	379.19	114.86	345.25	-141.44	294.72	301.42	-173.98	325.82	242.26	-250.02	364.38	305.03	272.47	71.994	388.04	-276.55	350.07	274.03	279.97	47.996	422.3	-263.39	329.54	333.81	281.69	46.812	360.16	306.78	385.04	495.23	377.06	377.59	513.41	383.13	304.67	491.83	328.03	305.38	479.85	271.62	805.12	556.61	332.28	844.18	565.95	362.46	758.56	551.09	304.51	722.77	540.47	187.74	446.91	192.53	156.76	493.83	193.05	101.85	463.64	205.35	137.36	422.34	201.95	288.29	769.91	176.42	218.56	777.78	161.39	228.04	702.05	169.26	291.5	695.92	182.19
184	0.76517	505.91	1772.9	354.23	329.87	1524.7	560.48	308.06	1531.2	102.46	321.64	1070.5	534.52	305.6	994.54	185.48	99.499	1064.7	421.86	103.69	1063.7	288.5	85.832	1034.4	355.38	283.76	1123.8	142.98	288.68	1163.5	546.14	237.24	916.92	146.64	274	958.53	579.32	390.64	564.77	501.68	421.07	576.55	372.6	274.04	484.06	333.79	243.63	533.51	186.93	602.66	69.953	386.81	-82.525	100.63	214.02	518.67	56.004	338.78	-136.99	144.13	287.38	-177.12	190.01	172.79	488.51	44.896	474.29	373.03	105.1	447.43	379.52	115.16	345.36	-128.85	296.59	300.56	-161.61	328.29	241.86	-237.15	366.55	305.53	272.71	72.509	388.18	-263.89	352.57	274.56	280.12	48.444	422.4	-250.41	331.48	334.06	281.84	47.327	360.28	308.92	385.77	495.37	379.13	377.82	513.66	384.73	304.89	492.02	329.66	305.99	479.95	276.76	806.05	556.91	337.69	844.67	566.4	367.27	758.81	551.61	309.09	723.46	540.86	200.1	449.15	191.57	169.2	496.15	192.68	114.3	465.96	204.92	149.72	424.58	200.99	297.47	771.93	176.29	227.66	779.05	161.29	238	703.42	168.98	301.54	697.96	181.87
185	0.76935	513.25	1773.6	353.82	336.77	1526	560.62	313.91	1532.3	102.47	328.41	1071.4	535.01	312.23	996.22	185.7	106.11	1066	422.51	110.11	1064.8	289.24	92.444	1035.6	356.04	289.83	1124.9	143.19	295.75	1164.8	546.47	244.26	918.52	146.86	280.29	959.43	579.67	394.04	564.95	502.05	424.73	576.47	373	287.07	485	332.91	256.06	535.81	186.53	602.86	69.637	386.78	-70.254	103.14	210.84	518.77	56.027	338.78	-124.25	145.93	284.98	-165.03	193.02	171.02	488.56	44.913	474.33	373.47	105.34	447.56	379.85	115.48	345.5	-116.11	298.21	299.61	-149.08	330.44	241.35	-224.23	368.31	305.85	272.94	73.047	388.34	-251.15	354.61	274.9	280.28	48.912	422.52	-237.36	332.99	334.14	282	47.864	360.41	310.97	386.51	495.53	381.1	378.08	513.92	386.24	305.14	492.22	331.19	306.61	480.08	281.82	807.04	557.21	343.04	845.22	566.82	372.01	759.13	552.11	313.59	724.23	541.25	212.5	451.44	190.63	181.63	498.48	192.29	126.77	468.23	204.47	162.14	426.83	200.05	306.63	774.03	176.17	236.75	780.4	161.17	247.95	704.87	168.69	311.57	700.07	181.55
186	0.77353	520.58	1774.4	353.38	343.62	1527.4	560.76	319.74	1533.5	102.47	335.16	1072.3	535.43	318.81	997.91	185.89	112.69	1067.4	423.11	116.52	1066	289.93	99.028	1036.9	356.65	295.91	1126	143.42	302.81	1166.2	546.78	251.23	920.15	147.07	286.56	960.44	579.99	397.29	565.17	502.42	428.28	576.41	373.42	299.98	486.14	332.08	268.44	538.18	186.12	603.05	69.349	386.75	-57.584	105.42	207.76	518.87	56.05	338.8	-111.21	147.47	282.61	-152.6	195.63	169.23	488.62	44.922	474.36	373.92	105.6	447.7	380.18	115.82	345.65	-103.24	299.57	298.58	-136.4	332.27	240.75	-211.28	369.66	305.99	273.18	73.611	388.51	-238.32	356.19	275.05	280.43	49.404	422.65	-224.25	334.1	334.04	282.16	48.425	360.55	312.92	387.25	495.71	382.98	378.37	514.18	387.68	305.43	492.43	332.64	307.25	480.23	286.82	808.11	557.5	348.32	845.83	567.2	376.66	759.5	552.6	318	725.06	541.64	224.94	453.75	189.71	194.04	500.81	191.88	139.24	470.45	203.98	174.62	429.05	199.13	315.78	776.2	176.05	245.84	781.8	161.04	257.89	706.39	168.4	321.59	702.27	181.24
187	0.77771	527.89	1775.3	352.93	350.45	1528.7	560.89	325.56	1534.6	102.44	341.9	1073.3	535.79	325.35	999.6	186.06	119.25	1069	423.67	122.94	1067.3	290.57	105.59	1038.2	357.22	301.98	1127.2	143.67	309.86	1167.6	547.07	258.15	921.8	147.27	292.79	961.53	580.27	400.39	565.41	502.79	431.71	576.36	373.86	312.77	487.48	331.3	280.76	540.61	185.72	603.23	69.085	386.73	-44.526	107.46	204.8	518.96	56.074	338.83	-97.886	148.74	280.29	-139.84	197.85	167.43	488.67	44.925	474.4	374.36	105.86	447.86	380.51	116.19	345.83	-90.24	300.68	297.47	-123.6	333.77	240.04	-198.29	370.61	305.93	273.42	74.203	388.69	-225.42	357.33	274.99	280.59	49.921	422.79	-211.08	334.82	333.76	282.32	49.013	360.7	314.79	388.01	495.89	384.77	378.69	514.44	389.05	305.75	492.64	334.01	307.91	480.4	291.76	809.24	557.78	353.55	846.49	567.56	381.23	759.93	553.06	322.33	725.96	542.02	237.4	456.09	188.83	206.43	503.12	191.46	151.72	472.6	203.46	187.15	431.26	198.22	324.92	778.43	175.94	254.94	783.27	160.89	267.83	707.97	168.11	331.61	704.54	180.95
188	0.78189	535.18	1776.2	352.46	357.23	1530.2	561.02	331.39	1535.8	102.4	348.62	1074.4	536.09	331.86	1001.3	186.2	125.78	1070.5	424.17	129.36	1068.6	291.16	112.12	1039.7	357.74	308.06	1128.3	143.93	316.9	1169	547.33	265.03	923.47	147.45	298.98	962.72	580.52	403.33	565.69	503.15	435.03	576.34	374.31	325.44	489.01	330.57	293.02	543.09	185.33	603.4	68.842	386.72	-31.087	109.24	201.99	519.05	56.096	338.88	-84.282	149.74	278.03	-126.76	199.65	165.62	488.73	44.92	474.45	374.79	106.14	448.03	380.84	116.57	346.01	-77.118	301.54	296.3	-110.65	334.93	239.21	-185.27	371.18	305.68	273.66	74.825	388.89	-212.44	358.03	274.71	280.75	50.465	422.94	-197.87	335.15	333.29	282.48	49.631	360.86	316.58	388.78	496.09	386.49	379.04	514.7	390.36	306.11	492.85	335.31	308.6	480.6	296.63	810.43	558.05	358.7	847.21	567.88	385.73	760.41	553.51	326.58	726.92	542.38	249.89	458.44	187.99	218.8	505.4	191.02	164.19	474.68	202.91	199.72	433.42	197.35	334.04	780.73	175.82	264.04	784.8	160.72	277.77	709.62	167.82	341.62	706.88	180.67
189	0.78607	542.45	1777.1	351.97	363.98	1531.6	561.14	337.21	1537	102.35	355.32	1075.6	536.35	338.34	1003	186.33	132.28	1072.2	424.63	135.77	1070	291.69	118.62	1041.2	358.21	314.14	1129.5	144.2	323.91	1170.5	547.56	271.88	925.16	147.63	305.14	963.98	580.74	406.12	566	503.49	438.23	576.35	374.76	337.98	490.74	329.91	305.23	545.6	184.94	603.57	68.618	386.72	-17.273	110.74	199.36	519.13	56.116	338.93	-70.409	150.47	275.85	-113.35	201.04	163.83	488.79	44.909	474.49	375.23	106.44	448.21	381.18	116.98	346.21	-63.878	302.16	295.07	-97.587	335.77	238.28	-172.23	371.37	305.22	273.91	75.479	389.09	-199.4	358.29	274.22	280.92	51.039	423.1	-184.62	335.11	332.62	282.64	50.28	361.02	318.28	389.56	496.29	388.14	379.43	514.95	391.61	306.5	493.07	336.54	309.3	480.81	301.43	811.69	558.31	363.8	847.97	568.17	390.14	760.94	553.93	330.74	727.94	542.73	262.4	460.79	187.19	231.15	507.64	190.57	176.66	476.68	202.34	212.35	435.55	196.5	343.16	783.08	175.72	273.14	786.38	160.53	287.7	711.33	167.54	351.63	709.29	180.4
190	0.79025	549.7	1778	351.47	370.7	1533.1	561.26	343.05	1538.3	102.28	361.99	1076.8	536.55	344.8	1004.7	186.44	138.76	1073.9	425.03	142.19	1071.4	292.17	125.1	1042.7	358.63	320.23	1130.8	144.48	330.89	1172	547.76	278.7	926.86	147.8	311.27	965.31	580.93	408.76	566.35	503.82	441.31	576.38	375.21	350.39	492.65	329.31	317.37	548.14	184.56	603.72	68.41	386.72	-3.0909	111.97	196.9	519.21	56.135	339	-56.272	150.94	273.76	-99.627	202.01	162.06	488.85	44.892	474.54	375.66	106.76	448.39	381.52	117.41	346.42	-50.527	302.54	293.78	-84.397	336.27	237.25	-159.16	371.2	304.55	274.16	76.169	389.3	-186.28	358.14	273.5	281.09	51.645	423.26	-171.32	334.72	331.76	282.81	50.963	361.18	319.92	390.36	496.5	389.71	379.86	515.19	392.8	306.94	493.27	337.71	310.03	481.04	306.17	813	558.55	368.82	848.77	568.43	394.48	761.51	554.32	334.82	729.02	543.06	274.94	463.14	186.44	243.47	509.85	190.1	189.13	478.59	201.74	225.01	437.62	195.69	352.26	785.49	175.61	282.24	788.01	160.33	297.62	713.1	167.26	361.63	711.76	180.16
